<?xml version="1.0" ?><!DOCTYPE svg  PUBLIC '-//W3C//DTD SVG 1.1//EN'  'http://www.w3.org/Graphics/SVG/1.1/DTD/svg11.dtd'><svg height="512px" style="enable-background:new 0 0 512 512;" version="1.1" viewBox="0 0 512 512" width="512px" xml:space="preserve" xmlns="http://www.w3.org/2000/svg" xmlns:xlink="http://www.w3.org/1999/xlink"><g id="family_parents_kids_children"><g><circle cx="200.018" cy="114.392" r="40.665"/><circle cx="310.643" cy="114.393" r="40.665"/><circle cx="78.178" cy="206.362" r="28.729"/><circle cx="433.83" cy="209.465" r="28.728"/><path d="M404.135,240.534l-12.74-26.254c-14.975-30.968-24.357-52.223-54.181-52.223h-53.119    c-23.315,0-36.262,14.893-47.477,37.178l-1.503-7.149c0,0,7.008-16.118,15.852-23.208c-2.98-2.534-14.335-6.82-24.401-6.82    h-53.119c-29.823,0-39.918,21.255-54.893,52.223l-11.128,22.932c12.396,2.555,19.084,11.689,26.026,25.096l25.85-50.07    l-16.404,79.465l-7.169-14.772c-10.579-21.878-17.711-36.893-38.779-36.893H59.407c-21.068,0-28.2,15.015-38.779,36.893    L1.216,316.932c-2.882,5.905-0.478,13.132,5.492,15.876c7.793,3.582,13.877-1.248,15.938-5.473l26.769-51.85v149.619    c0,7.13,5.782,12.912,12.915,12.912c7.132,0,12.914-5.782,12.914-12.912v-78.129h5.87v78.129c0,7.13,5.782,12.912,12.913,12.912    c7.134,0,12.915-5.782,12.915-12.912V275.485l26.769,51.85c0.349,0.715,0.817,1.448,1.386,2.155l-4.275,20.707h28.48v69.796    c0,10.094,8.185,18.279,18.281,18.279c10.095,0,18.279-8.186,18.279-18.279v-69.796h8.184v69.657    c0,10.096,8.184,18.279,18.28,18.279c10.095,0,18.279-8.184,18.279-18.279v-69.657h27.768l-20.149-95.792l2.667-5.151    l19.165-37.017v207.617c0,10.096,8.184,18.28,18.278,18.28c10.097,0,18.281-8.185,18.281-18.28V313.431h8.184v106.563    c0,10.094,8.184,18.279,18.279,18.279s18.28-8.186,18.28-18.279V212.237l27.084,53.463    C385.336,252.356,391.955,243.216,404.135,240.534z"/><path d="M510.796,320.112l-19.399-39.977c-10.572-21.863-17.699-36.867-38.754-36.867h-37.625    c-21.055,0-28.181,15.004-38.754,36.867l-19.398,39.977c-2.882,5.9-0.412,12.984,5.486,15.864    c5.902,2.88,13.049,0.433,15.929-5.468l26.751-51.815l-20.106,97.399h20.106v49.273c0,7.127,5.779,12.906,12.906,12.906    c7.128,0,12.906-5.779,12.906-12.906v-49.273h5.974v49.273c0,7.127,5.778,12.906,12.905,12.906    c7.129,0,12.906-5.779,12.906-12.906v-49.273h20.106l-20.106-97.399l26.752,51.815c2.879,5.9,10.025,8.348,15.928,5.468    C511.207,333.097,513.678,326.013,510.796,320.112z"/></g></g><g id="Capa_1"/></svg>